<?xml version="1.0" encoding="UTF-8" standalone="no"?>
<svg
  viewBox="0 0 159.63074 37.998927"
  version="1.1"
  id="store"
  xml:space="preserve"
  inkscape:version="1.3 (0e150ed6c4, 2023-07-21)"
  sodipodi:docname="store.svg"
  xmlns:inkscape="http://www.inkscape.org/namespaces/inkscape"
  xmlns:sodipodi="http://sodipodi.sourceforge.net/DTD/sodipodi-0.dtd"
  xmlns="http://www.w3.org/2000/svg"
  xmlns:svg="http://www.w3.org/2000/svg"><sodipodi:namedview
     id="namedview1"
     pagecolor="#ffffff"
     bordercolor="#000000"
     borderopacity="0.25"
     inkscape:showpageshadow="2"
     inkscape:pageopacity="0.0"
     inkscape:pagecheckerboard="0"
     inkscape:deskcolor="#d1d1d1"
     inkscape:document-units="mm"
     inkscape:zoom="1.4645623"
     inkscape:cx="105.49227"
     inkscape:cy="159.0919"
     inkscape:window-width="2560"
     inkscape:window-height="1020"
     inkscape:window-x="0"
     inkscape:window-y="28"
     inkscape:window-maximized="1"
     inkscape:current-layer="layer1" /><defs
     id="defs1" /><g
     inkscape:label="Layer 1"
     inkscape:groupmode="layer"
     id="layer1"
     transform="translate(-1.0926012,-1.2850063)"><path
       id="path1"
       style="font-weight:bold;font-size:52.0488px;font-family:Bitter;-inkscape-font-specification:'Bitter Bold';fill:#273d7f;stroke-width:193.37"
       d="m 78.586742,1.2938532 c -2.852293,-0.085649 -5.725216,0.4506286 -8.25586,1.6074219 -8.754293,3.8997802 -10.556258,14.8939569 -8.939453,23.4023439 0.972656,7.566318 7.990266,13.475814 15.640625,12.919922 2.46828,0.0019 4.95708,-0.378286 7.25,-1.316407 C 94.479377,33.678433 96.74138,20.325404 93.215648,10.901275 91.032311,4.6797032 84.861787,1.4822819 78.586742,1.2938532 Z M 13.967601,1.3192438 C 10.795245,1.4104388 7.7055548,2.1919266 4.9968981,4.0262751 -1.0971113,8.289001 0.18503819,19.172513 7.5105699,21.424713 11.604232,23.776939 20.976935,23.621534 19.596507,30.401275 17.228194,35.06475 10.511494,34.006947 6.6238512,32.520416 6.4755088,31.502463 5.970076,29.454439 5.9539293,28.817291 6.2949059,26.050943 3.0121339,27.590515 1.3523668,27.202056 l -0.2597656,9.888672 c 6.1756683,2.30537 13.3032958,3.202715 19.5488278,0.65625 C 28.136623,35.21686 29.71219,23.515438 22.569164,19.631744 18.361267,16.162186 9.84891,17.280163 8.3269762,11.170806 8.82387,5.7004844 16.296944,6.4697511 20.051586,7.6473688 c 0.31463,-1.3199887 -0.182234,1.5358418 0.613281,3.4746092 -0.25623,2.758221 3.035557,1.218817 4.734375,1.609375 L 25.971507,3.6239313 C 22.26014,2.2270879 18.046345,1.2019931 13.967601,1.3192438 Z m 98.833989,0.6015625 c -4.48018,-0.045061 -8.99032,0.3139356 -13.460942,0.2832031 -1.06291,0.1682542 -1.392914,4.465974 0.699222,4.1308594 0.69908,0.1466651 1.7178,0.4977454 2.49609,0.6953125 V 33.649322 c -0.35547,-0.04909 -0.87556,0.05832 -1.64258,0.578125 -2.851363,-0.142814 -2.217482,2.35221 -2.208982,4.373047 h 14.578122 c 1.61197,0.436163 1.6032,-4.273706 -0.15429,-4.052735 -0.76521,-0.08822 -2.23234,-0.683989 -3.12891,-0.867187 V 23.674713 c 1.49069,0.07914 4.52012,-0.01869 5.23047,0.949218 2.65049,3.592391 4.06026,7.930981 6.08203,11.894532 0.28052,2.653211 2.59566,2.115701 4.58789,2.082031 1.50541,-0.509007 5.18904,1.160481 4.91797,-1.125 0.74563,-2.422249 -0.85023,-3.143787 -2.84375,-3.578125 -0.10132,-0.20615 -0.30512,-0.504013 -0.64844,-0.917969 -2.32199,-3.65256 -3.3074,-8.868258 -7.67383,-10.621094 1.19699,-0.129962 2.49776,-0.455888 3.17383,-1.236328 7.5346,-3.639302 6.68337,-16.9300537 -1.98828,-18.5136717 -2.65172,-0.4878904 -5.32752,-0.6604634 -8.01562,-0.6875 z m -83.757817,0.037109 v 9.8574227 c 0.143811,1.049565 4.468864,1.217357 4.601563,-0.179688 0.190914,-1.232816 0.685612,-2.9862113 0.919921,-4.2929691 0.884535,0.018401 2.121325,-0.096144 2.861329,-0.023437 0.672849,-0.074571 1.853631,0.021506 2.753906,0.023437 0.0038,8.7898671 -0.006,17.6277481 0.0098,26.3808601 -0.657823,0.135837 -1.462464,0.371707 -2.207031,0.566406 -2.873043,-0.223902 -2.235162,2.289468 -2.226562,4.310547 h 16.34375 C 51.948865,36.811683 52.95459,34.122438 50.188339,34.366119 49.37778,34.171738 48.410927,33.866973 47.676621,33.725494 V 7.4891657 c 0.357242,0.033475 0.80121,0.00951 1.398437,-0.1699219 0.930056,-0.1470924 3.001135,0.078844 4.193359,0.017578 0.194077,1.068102 0.838003,2.8365422 0.791016,3.5292972 -0.219274,2.750843 3.051808,1.215955 4.755859,1.605469 V 1.9579157 Z m 130.902347,0 c -8.41209,-0.00611 -16.82567,-0.054628 -25.23438,0.2285156 -2.04379,-0.786639 -1.73662,3.6398562 -0.63672,3.9628906 0.74991,0.071709 2.2746,0.7105334 3.17774,0.8945313 V 33.616119 c -0.36234,-0.03445 -0.88434,0.08662 -1.64649,0.595703 -2.84553,-0.122507 -2.21308,2.367895 -2.20508,4.388672 h 27.11719 c 0.0288,-2.715153 0.057,-5.431331 0.0859,-8.146485 0.81751,-2.808785 -2.78691,-1.240954 -4.40625,-1.638671 -0.0906,0.461852 -0.18088,0.922913 -0.27148,1.384765 -0.04,0.726005 -0.48379,2.124817 -0.63672,3.039063 h -7.14844 c -0.73258,0.157011 -2.42821,-0.08408 -3.44531,-0.04492 V 25.4794 c -0.111,-0.655349 0.0442,-2.016707 0.043,-2.962891 h 10.1621 c 2.0636,0.01803 0.49571,-3.595443 0.98438,-5.152343 h -7.74414 c -0.73258,0.157011 -2.42821,-0.08408 -3.44531,-0.04492 v -6.554688 c -0.15709,-0.732927 0.0844,-2.4283974 0.0449,-3.4453122 h 9.99805 c -0.0227,0.6257693 0.0989,1.5339748 0.45117,2.4003906 -0.2204,2.7510756 3.05197,1.2178756 4.75586,1.6074216 z m -82.039066,4.962891 c 5.684295,-0.071502 9.338282,6.3401407 8.78711,11.8515627 0.533131,6.002851 -1.442841,14.959214 -9.089844,14.726562 -5.519051,0.40098 -8.362262,-5.0043 -8.544922,-9.755859 C 68.685657,17.963596 68.486751,9.4263211 75.352367,7.3700251 76.24091,7.0736932 77.095012,6.9310209 77.907054,6.9208063 Z m 35.552736,0.3144531 c 1.57601,0.010817 3.12978,0.1649165 4.59375,0.8222657 5.39273,3.7253949 0.5814,11.9875239 -5.38867,10.5039059 -0.82652,0.02869 -1.90818,-0.07801 -2.68555,-0.02344 V 10.38565 c -0.13646,-0.6828034 0.0731,-2.1558273 0.0566,-3.1113281 1.138,-0.00341 2.28458,-0.046882 3.42383,-0.039063 z" /></g></svg>